<?xml version="1.0" encoding="UTF-8"?><svg id="Calque_2" xmlns="http://www.w3.org/2000/svg" viewBox="0 0 63.16 25.18"><defs><style>.cls-1{fill:#7bc18c;}</style></defs><g id="Calque_2-2"><g id="Calque_1-2"><path class="cls-1" d="M35.54,.18l-6.44,.09c-3.26,.02-4.74,.92-7.32,3.37l-6.89,6.58c-.71,.65-.99,.73-1.43,1.04L1.61,18.44c-3.49,2.13-.78,7.31,3.03,5l11.53-7.01c.87-.55,1.8-1.24,2.55-1.87l5.01-4.23,.81,.19c3.13,.73,4.96,.95,7.99,.92l8.49-.15c4.02-.06,6.85-2.69,6.49-6.8C47.24,1.41,44.36-.2,40.75,.02l-5.22,.16h0Zm14.88,7.35c.31,3.51,3.41,6.09,6.92,5.78s6.11-3.39,5.8-6.89S59.75,.3,56.22,.61s-6.12,3.39-5.81,6.92h0Z"/><path class="cls-1" d="M37.81,5.99l.87,16.26c0,1.76,1,2.93,2.64,2.93s2.64-1.2,2.63-2.93l-.87-16.73-5.27,.46h0Z"/></g></g></svg>